<svg fill="#1a237e" xmlns="http://www.w3.org/2000/svg"  viewBox="0 0 24 24" width="96px" height="96px"><path d="M 7.0957031 4.0234375 C 5.6021615 4.0234375 4.2786505 4.9874749 3.8027344 6.4140625 A 0.50005 0.50005 0 0 0 3.7988281 6.4316406 L 1.3222656 14.767578 C 1.2600841 14.930612 1.2174856 15.098855 1.1738281 15.267578 L 1.125 15.433594 A 0.5002412 0.5002412 0 0 0 1.1054688 15.53125 A 0.5002412 0.5002412 0 0 0 1.1054688 15.535156 C 1.0422153 15.853664 1 16.175899 1 16.5 C 1 17.611111 1.3686504 18.72894 2.1269531 19.582031 C 2.8852559 20.435122 4.0416672 21 5.5 21 C 6.9583328 21 8.1147441 20.435122 8.8730469 19.582031 C 9.6313496 18.72894 10 17.611111 10 16.5 C 10 16.193389 9.9647885 15.887867 9.9082031 15.585938 C 11.254779 16.10347 12.745221 16.10347 14.091797 15.585938 C 14.035211 15.887867 14 16.193389 14 16.5 C 14 17.611111 14.36865 18.72894 15.126953 19.582031 C 15.885256 20.435122 17.041667 21 18.5 21 C 19.958333 21 21.114744 20.435122 21.873047 19.582031 C 22.63135 18.72894 23 17.611111 23 16.5 C 23 16.181256 22.959609 15.864223 22.898438 15.550781 A 0.50005 0.50005 0 0 0 22.876953 15.433594 L 22.8125 15.216797 C 22.772704 15.069688 22.737556 14.921996 22.683594 14.779297 L 20.203125 6.4296875 A 0.50005 0.50005 0 0 0 20.199219 6.4140625 C 19.723297 4.9874749 18.399792 4.0234375 16.90625 4.0234375 C 15.03283 4.0234375 13.557418 5.493422 13.417969 7.2578125 C 12.959678 7.0933508 12.480977 7.0019531 12 7.0019531 C 11.519844 7.0019531 11.042144 7.0919593 10.583984 7.2558594 C 10.443611 5.4919485 8.9684448 4.0234375 7.0957031 4.0234375 z M 7.0957031 5.0234375 C 8.6434269 5.0234375 9.7846711 6.3834179 9.5703125 7.8847656 A 0.50005 0.50005 0 0 0 9.5664062 7.9199219 L 9.53125 8.4316406 A 0.50026035 0.50026035 0 1 0 10.529297 8.5019531 L 10.539062 8.3632812 C 11.456555 7.8903588 12.545699 7.8915054 13.462891 8.3652344 L 13.472656 8.5 A 0.50026035 0.50026035 0 1 0 14.470703 8.4296875 L 14.435547 7.9199219 A 0.50005 0.50005 0 0 0 14.431641 7.8847656 C 14.217282 6.3834179 15.358526 5.0234375 16.90625 5.0234375 C 17.971759 5.0234375 18.903224 5.6986538 19.248047 6.7285156 C 19.248047 6.7285156 19.25 6.7304688 19.25 6.7304688 L 21.027344 12.720703 C 20.342568 12.27935 19.49917 12 18.5 12 C 17.041667 12 15.885256 12.564878 15.126953 13.417969 C 14.901283 13.671848 14.721658 13.954429 14.564453 14.248047 C 13.000034 15.229677 10.999966 15.229677 9.4355469 14.248047 C 9.2783424 13.954429 9.0987172 13.671848 8.8730469 13.417969 C 8.1147441 12.564878 6.9583328 12 5.5 12 C 4.5019093 12 3.6590177 12.278254 2.9746094 12.71875 L 4.7519531 6.7304688 L 4.7539062 6.7285156 C 5.0987324 5.6986506 6.0301939 5.0234375 7.0957031 5.0234375 z M 5.5 13 C 6.7083327 13 7.5519231 13.435122 8.1269531 14.082031 C 8.7019831 14.72894 9 15.611111 9 16.5 C 9 17.388889 8.7019831 18.27106 8.1269531 18.917969 C 7.5519231 19.564878 6.7083327 20 5.5 20 C 4.2916673 20 3.4480769 19.564878 2.8730469 18.917969 C 2.2980169 18.27106 2 17.388889 2 16.5 C 2 16.219225 2.038849 15.942153 2.0976562 15.669922 L 2.2675781 15.097656 C 2.4126288 14.725991 2.6105216 14.377372 2.8730469 14.082031 C 3.4480769 13.435122 4.2916673 13 5.5 13 z M 18.5 13 C 19.708333 13 20.551923 13.435122 21.126953 14.082031 C 21.393139 14.38149 21.592898 14.735667 21.738281 15.113281 L 21.882812 15.599609 C 21.952326 15.894169 22 16.194583 22 16.5 C 22 17.388889 21.701983 18.27106 21.126953 18.917969 C 20.551923 19.564878 19.708333 20 18.5 20 C 17.291667 20 16.448077 19.564878 15.873047 18.917969 C 15.298017 18.27106 15 17.388889 15 16.5 C 15 15.611111 15.298017 14.72894 15.873047 14.082031 C 16.448077 13.435122 17.291667 13 18.5 13 z"/></svg>